<svg width="428" height="428" viewBox="0 0 428 428" fill="none" xmlns="http://www.w3.org/2000/svg">
<path d="M378.27 334.84C382.863 337.906 389.074 336.668 392.141 332.074C415.578 296.957 427.969 255.996 427.969 213.617C427.969 156.555 405.75 102.906 365.406 62.5625C325.062 22.2188 271.418 0 214.352 0C157.285 0 103.637 22.2188 63.293 62.5625C22.9492 102.906 0.730469 156.555 0.730469 213.621C0.730469 251.629 10.8438 288.949 29.9766 321.551L36.4297 332.551L16.8789 402.324C15.9063 405.785 16.8711 409.504 19.4023 412.059C21.9336 414.613 25.6445 415.613 29.1172 414.676L101.148 395.207L111.742 401.023C142.984 418.176 178.465 427.238 214.348 427.238C256.73 427.238 297.691 414.848 332.805 391.406C337.398 388.344 338.637 382.133 335.57 377.539C332.504 372.945 326.297 371.707 321.703 374.773C289.887 396.012 252.766 407.238 214.348 407.238C181.82 407.238 149.668 399.027 121.367 383.492L107.242 375.734C104.977 374.492 102.316 374.176 99.8203 374.848L40.8828 390.777L56.8359 333.852C57.5664 331.234 57.207 328.434 55.832 326.094L47.2227 311.426C29.8906 281.891 20.7305 248.07 20.7305 213.617C20.7305 106.855 107.59 20 214.352 20C321.113 20 407.969 106.855 407.969 213.621C407.969 252.031 396.742 289.152 375.504 320.973C372.438 325.566 373.676 331.773 378.27 334.84V334.84Z" fill="black"/>
<path d="M181.435 184.282L181.997 183.628C189.615 175.077 187.692 165.035 184.735 158.118C180.366 147.904 168.936 121.793 167.853 119.322C166.165 115.056 160.534 108.299 149.207 108.063C140.376 107.884 137.472 108.133 136.795 108.216C136.725 108.223 136.655 108.233 136.589 108.243C135.286 108.432 104.653 113.389 99.3637 159.294C96.9316 180.399 106.706 205.539 128.415 234.025C152.45 265.56 174.545 284.339 207.218 300.995C223.488 309.29 247.254 319 269.378 319C270.096 319 270.813 318.99 271.524 318.967C296.373 318.243 309.643 307.918 316.398 299.384C323.567 290.325 325.066 281.399 325.282 279.851C325.425 278.868 325.77 275.765 325.99 267.683C326.295 256.358 319.81 250.412 315.63 248.522C313.268 247.349 288.914 235.277 278.93 230.437C272.189 227.165 262.278 225.298 253.357 234.975C253.31 235.025 253.267 235.075 253.224 235.118C252.018 236.171 250.825 237.742 247.2 242.592C244.968 245.578 240.512 251.538 238.618 253.528C234.618 253.81 221.242 247.92 202.281 233.241C190.33 223.986 177.568 209.579 170.508 197.374C170.438 197.201 170.395 196.886 170.415 196.726C173.342 193.716 178.106 188.185 181.435 184.282Z" fill="black"/>
</svg>
