<?xml version="1.0" encoding="utf-8"?>
<!-- Generator: Adobe Illustrator 25.2.1, SVG Export Plug-In . SVG Version: 6.00 Build 0)  -->
<svg version="1.1" id="Слой_1" xmlns="http://www.w3.org/2000/svg" xmlns:xlink="http://www.w3.org/1999/xlink" x="0px" y="0px"
	 viewBox="0 0 183.4 70.6" style="enable-background:new 0 0 183.4 70.6;" xml:space="preserve">
<style type="text/css">
	.st0{fill:#A1AC76;}
	.st1{fill:#EFEFEF;}
</style>
<g>
	<g>
		<polygon class="st0" points="45.2,25.4 36.6,38.1 39.6,38.1 48.3,25.4 		"/>
		<polygon class="st0" points="64.6,0 61.5,0 51.2,15.1 54.3,15.1 		"/>
		<polygon class="st0" points="45.2,15.1 48.2,15.1 58.5,0 55.4,0 		"/>
	</g>
	<g>
		<path class="st1" d="M67.6,40.9c0-2.7,0.5-5.2,1.4-7.3c1-2.1,2.3-3.8,3.9-5.1c1.6-1.3,3.4-2.2,5.4-2.8c2-0.6,4.1-0.9,6.3-0.9
			c3.6,0,6.9,0.6,10,1.9v9.1c-2.2-1.4-4.9-2.1-8.1-2.1c-2.5,0-4.5,0.6-6.1,1.8c-1.6,1.2-2.4,3-2.4,5.5c0,1.4,0.2,2.6,0.7,3.6
			c0.5,1,1.1,1.7,1.8,2.2c0.7,0.5,1.4,0.8,2.1,1c0.7,0.2,1.3,0.3,2,0.3c0.4,0,0.8,0,1.2-0.1v-8.8h9.5V55c-3.5,1.4-7,2.1-10.5,2.1
			c-2.3,0-4.5-0.3-6.5-1c-2-0.7-3.9-1.6-5.5-2.9c-1.6-1.3-2.9-3-3.9-5.1C68.1,46,67.6,43.6,67.6,40.9z"/>
		<path class="st1" d="M115.5,25.5h10.2v18.9c0,2.3-0.4,4.3-1.2,6c-0.8,1.7-1.9,3-3.3,4c-1.4,1-2.9,1.7-4.5,2.1
			c-1.6,0.4-3.4,0.7-5.4,0.7c-1.9,0-3.7-0.2-5.4-0.7c-1.6-0.4-3.1-1.1-4.5-2.1c-1.4-1-2.5-2.3-3.3-4c-0.8-1.7-1.2-3.7-1.2-6V25.5
			h10.2v18.4c0,2.7,1.4,4.1,4.1,4.1c2.8,0,4.2-1.4,4.2-4.1V25.5z"/>
		<path class="st1" d="M162.8,25.5h-6.1v0h-10.1v9.2c0,2.1,0.1,3.8,0.3,5.3l-10.5-14.5h-8.6v30.9h10.2v-9.3c0-2-0.1-3.7-0.3-5.2
			l10.5,14.5h8.6V34.3L162.8,25.5z"/>
	</g>
	<polygon class="st0" points="165.3,25.5 159.2,34.4 165,34.4 165,56.4 175.1,56.4 175.1,34.4 183.4,34.4 183.4,25.5 	"/>
	<polygon class="st1" points="51.3,25.4 42.7,38.1 51.9,38.1 51.9,47.5 32.9,55.4 14.2,46.8 14.2,15.1 42.2,15.1 52.4,0 0,0 0,56.6 
		33.1,70.6 65.6,56.4 65.6,25.4 	"/>
</g>
</svg>
